<svg xmlns="http://www.w3.org/2000/svg">
  <defs>
    <symbol id="sun" viewBox="0 0 24 24" fill="none" stroke="currentColor" stroke-width="2" stroke-linecap="round" stroke-linejoin="round">
      <circle cx="12" cy="12" r="4"/><path d="M12 2v2M12 20v2M4.93 4.93l1.42 1.42M17.66 17.66l1.41 1.41M2 12h2M20 12h2M4.93 19.07l1.42-1.42M17.66 6.34l1.41-1.41"/>
    </symbol>
    <symbol id="moon" viewBox="0 0 24 24" fill="none" stroke="currentColor" stroke-width="2" stroke-linecap="round" stroke-linejoin="round">
      <path d="M20.8 13.1A8.5 8.5 0 1 1 10.9 3.2 6.6 6.6 0 0 0 20.8 13.1Z"/>
    </symbol>
    <symbol id="bell" viewBox="0 0 24 24" fill="none" stroke="currentColor" stroke-width="2" stroke-linecap="round" stroke-linejoin="round">
      <path d="M18 8a6 6 0 0 0-12 0c0 7-3 7-3 9h18c0-2-3-2-3-9M10 21h4"/>
    </symbol>
    <symbol id="x" viewBox="0 0 24 24" fill="none" stroke="currentColor" stroke-width="2" stroke-linecap="round">
      <path d="m6 6 12 12M18 6 6 18"/>
    </symbol>
    <symbol id="music" viewBox="0 0 24 24" fill="none" stroke="currentColor" stroke-width="2" stroke-linecap="round" stroke-linejoin="round">
      <path d="M9 18V5l12-2v13"/><circle cx="6" cy="18" r="3"/><circle cx="18" cy="16" r="3"/>
    </symbol>
    <symbol id="folder-upload" viewBox="0 0 24 24" fill="none" stroke="currentColor" stroke-width="2" stroke-linecap="round" stroke-linejoin="round">
      <path d="M3 7h6l2 2h10v10a2 2 0 0 1-2 2H5a2 2 0 0 1-2-2V7Z"/><path d="m12 17 0-5m-3 3 3-3 3 3"/>
    </symbol>
    <symbol id="loader" viewBox="0 0 24 24" fill="none" stroke="currentColor" stroke-width="2" stroke-linecap="round">
      <path d="M21 12a9 9 0 1 1-6.2-8.56"/>
    </symbol>
    <symbol id="check" viewBox="0 0 24 24" fill="none" stroke="currentColor" stroke-width="2.25" stroke-linecap="round" stroke-linejoin="round">
      <path d="m5 12 4 4L19 6"/>
    </symbol>
    <symbol id="check-circle" viewBox="0 0 24 24" fill="none" stroke="currentColor" stroke-width="2" stroke-linecap="round" stroke-linejoin="round">
      <circle cx="12" cy="12" r="9"/><path d="m8 12 3 3 5-6"/>
    </symbol>
    <symbol id="refresh" viewBox="0 0 24 24" fill="none" stroke="currentColor" stroke-width="2" stroke-linecap="round" stroke-linejoin="round">
      <path d="M20 6v5h-5M4 18v-5h5"/><path d="M18.5 9A7 7 0 0 0 6 6.5L4 9M5.5 15A7 7 0 0 0 18 17.5l2-2.5"/>
    </symbol>
    <symbol id="mic" viewBox="0 0 24 24" fill="none" stroke="currentColor" stroke-width="2" stroke-linecap="round" stroke-linejoin="round">
      <rect x="9" y="2" width="6" height="12" rx="3"/><path d="M5 10v1a7 7 0 0 0 14 0v-1M12 18v4M8 22h8"/>
    </symbol>
    <symbol id="download" viewBox="0 0 24 24" fill="none" stroke="currentColor" stroke-width="2" stroke-linecap="round" stroke-linejoin="round">
      <path d="M12 3v12m-5-5 5 5 5-5M4 19h16"/>
    </symbol>
    <symbol id="scissors" viewBox="0 0 24 24" fill="none" stroke="currentColor" stroke-width="2" stroke-linecap="round" stroke-linejoin="round">
      <circle cx="6" cy="6" r="3"/><circle cx="6" cy="18" r="3"/><path d="m8.1 8.1 12 11.9M8.1 15.9 20 4"/>
    </symbol>
    <symbol id="settings" viewBox="0 0 24 24" fill="none" stroke="currentColor" stroke-width="2" stroke-linecap="round" stroke-linejoin="round">
      <circle cx="12" cy="12" r="3"/><path d="M19.4 15a1.7 1.7 0 0 0 .3 1.8l.1.1-2.9 2.9-.1-.1a1.7 1.7 0 0 0-1.8-.3 1.7 1.7 0 0 0-1 1.5V21h-4v-.1a1.7 1.7 0 0 0-1-1.5 1.7 1.7 0 0 0-1.8.3l-.1.1-2.9-2.9.1-.1a1.7 1.7 0 0 0 .3-1.8 1.7 1.7 0 0 0-1.5-1H3v-4h.1a1.7 1.7 0 0 0 1.5-1 1.7 1.7 0 0 0-.3-1.8l-.1-.1 2.9-2.9.1.1a1.7 1.7 0 0 0 1.8.3 1.7 1.7 0 0 0 1-1.5V3h4v.1a1.7 1.7 0 0 0 1 1.5 1.7 1.7 0 0 0 1.8-.3l.1-.1 2.9 2.9-.1.1a1.7 1.7 0 0 0-.3 1.8 1.7 1.7 0 0 0 1.5 1h.1v4h-.1a1.7 1.7 0 0 0-1.5 1Z"/>
    </symbol>
    <symbol id="ban" viewBox="0 0 24 24" fill="none" stroke="currentColor" stroke-width="2" stroke-linecap="round">
      <circle cx="12" cy="12" r="9"/><path d="m5.6 5.6 12.8 12.8"/>
    </symbol>
    <symbol id="trash" viewBox="0 0 24 24" fill="none" stroke="currentColor" stroke-width="2" stroke-linecap="round" stroke-linejoin="round">
      <path d="M4 7h16M9 7V4h6v3M7 7l1 14h8l1-14M10 11v6M14 11v6"/>
    </symbol>
    <symbol id="file-down" viewBox="0 0 24 24" fill="none" stroke="currentColor" stroke-width="2" stroke-linecap="round" stroke-linejoin="round">
      <path d="M14 2H6a2 2 0 0 0-2 2v16a2 2 0 0 0 2 2h12a2 2 0 0 0 2-2V8Z"/><path d="M14 2v6h6M12 11v6m-3-3 3 3 3-3"/>
    </symbol>
    <symbol id="clipboard" viewBox="0 0 24 24" fill="none" stroke="currentColor" stroke-width="2" stroke-linecap="round" stroke-linejoin="round">
      <rect x="5" y="4" width="14" height="18" rx="2"/><path d="M9 4V2h6v2M9 10h6M9 14h6M9 18h4"/>
    </symbol>
    <symbol id="play" viewBox="0 0 24 24" fill="none" stroke="currentColor" stroke-width="2" stroke-linejoin="round">
      <path d="m8 5 11 7-11 7Z"/>
    </symbol>
    <symbol id="stop" viewBox="0 0 24 24" fill="none" stroke="currentColor" stroke-width="2">
      <rect x="5" y="5" width="14" height="14" rx="2"/>
    </symbol>
    <symbol id="record" viewBox="0 0 24 24" fill="none" stroke="currentColor" stroke-width="2">
      <circle cx="12" cy="12" r="8"/><circle cx="12" cy="12" r="3" fill="currentColor" stroke="none"/>
    </symbol>
    <symbol id="merge" viewBox="0 0 24 24" fill="none" stroke="currentColor" stroke-width="2" stroke-linecap="round" stroke-linejoin="round">
      <path d="M6 4v3a5 5 0 0 0 5 5h7M6 20v-3a5 5 0 0 1 5-5M15 9l3 3-3 3"/>
    </symbol>
    <symbol id="compress" viewBox="0 0 24 24" fill="none" stroke="currentColor" stroke-width="2" stroke-linecap="round" stroke-linejoin="round">
      <path d="m4 4 6 6M10 5v5H5M20 4l-6 6M14 5v5h5M4 20l6-6M10 19v-5H5M20 20l-6-6M14 19v-5h5"/>
    </symbol>
    <symbol id="arrow-up" viewBox="0 0 24 24" fill="none" stroke="currentColor" stroke-width="2" stroke-linecap="round" stroke-linejoin="round">
      <path d="m6 10 6-6 6 6M12 4v16"/>
    </symbol>
    <symbol id="arrow-down" viewBox="0 0 24 24" fill="none" stroke="currentColor" stroke-width="2" stroke-linecap="round" stroke-linejoin="round">
      <path d="m6 14 6 6 6-6M12 20V4"/>
    </symbol>
  </defs>
</svg>
